<?xml version="1.0" encoding="utf-8"?>
<!-- Generator: Avocode 2.5.4 - http://avocode.com -->
<svg height="76" width="76" xmlns:xlink="http://www.w3.org/1999/xlink" xmlns="http://www.w3.org/2000/svg" viewBox="0 0 76 76">
    <path stroke-width="3" stroke="#000000" fill="#46324f" fill-rule="evenodd" d="M 38 73 C 18.67 73 3 57.33 3 38 C 3 18.67 18.67 3 38 3 C 57.33 3 73 18.67 73 38 C 73 57.33 57.33 73 38 73 Z M 38.05 8.67 C 21.83 8.67 8.67 21.82 8.67 38.05 C 8.67 54.28 21.83 67.44 38.05 67.44 C 54.28 67.44 67.44 54.28 67.44 38.05 C 67.44 21.82 54.28 8.67 38.05 8.67 Z" />
    <path fill="#cba5da" opacity="0.8" fill-rule="evenodd" d="M 38.01 13.01 C 51.82 13.01 63.01 24.2 63.01 38.01 C 63.01 51.82 51.82 63.01 38.01 63.01 C 24.2 63.01 13.01 51.82 13.01 38.01 C 13.01 24.2 24.2 13.01 38.01 13.01 Z" />
    <path fill="#ffffff" fill-rule="evenodd" d="M 30.68 27.85 C 30.68 28.95 30.68 48.4 30.68 49.17 C 30.68 50.16 31.7 50.89 32.72 50.32 C 33.53 49.85 49.76 40.48 51.15 39.68 C 52.06 39.15 52.04 37.89 51.15 37.37 C 50.15 36.78 33.86 27.36 32.68 26.7 C 31.81 26.22 30.68 26.75 30.68 27.85 Z" />
</svg>