<svg id="areto" xmlns="http://www.w3.org/2000/svg" xmlns:xlink="http://www.w3.org/1999/xlink" viewBox="0 0 98.05 30.02">
  <defs>
    <style>
      .cls-1, .cls-13, .cls-2 {
        fill: none;
      }

      .cls-2 {
        clip-rule: evenodd;
      }

      .cls-3 {
        clip-path: url(#clip-path);
      }

      .cls-4 {
        clip-path: url(#clip-path-2);
      }

      .cls-5 {
        isolation: isolate;
      }

      .cls-6 {
        clip-path: url(#clip-path-3);
      }

      .cls-7 {
        clip-path: url(#clip-path-5);
      }

      .cls-8 {
        fill: #ff4e50;
      }

      .cls-9 {
        clip-path: url(#clip-path-7);
      }

      .cls-10 {
        clip-path: url(#clip-path-8);
      }

      .cls-11 {
        clip-path: url(#clip-path-9);
      }

      .cls-12 {
        clip-path: url(#clip-path-10);
      }

      .cls-13 {
        stroke: #ff4e50;
        stroke-miterlimit: 10;
        stroke-width: 0.5px;
      }

      .cls-14 {
        clip-path: url(#clip-path-13);
      }

      .cls-15 {
        clip-path: url(#clip-path-14);
      }

      .cls-16 {
        clip-path: url(#clip-path-16);
      }
    </style>
    <clipPath id="clip-path" transform="translate(5 5.02)">
      <rect class="cls-1" x="-1" width="90" height="20"/>
    </clipPath>
    <clipPath id="clip-path-2" transform="translate(5 5.02)">
      <path class="cls-2" d="M10,9.34a0.61,0.61,0,1,0-.6-0.61A0.6,0.6,0,0,0,10,9.34Zm0.49,3.79H12a0.59,0.59,0,0,0,.57-0.94l-0.94-1.92a1.37,1.37,0,0,0,0-.15,15.83,15.83,0,0,0-.37-2.06,5.81,5.81,0,0,0-.8-2,0.49,0.49,0,0,0-.92,0,4.58,4.58,0,0,0-.77,2,11.33,11.33,0,0,0-.38,2.06,1.35,1.35,0,0,0,0,.15L7.42,12.2a0.59,0.59,0,0,0,.57.94H9.55L9.82,13.4a0.29,0.29,0,0,0,.42,0ZM0,17.4a2.54,2.54,0,0,1,.34-1L8.52,2.07c0.82-1.43,2.14-1.43,3,0l8.18,14.34a2.56,2.56,0,0,1,.34,1v0.39A1.51,1.51,0,0,1,18.4,19a2.13,2.13,0,0,0-1.65-.79,2.1,2.1,0,0,0-.54.07,1.78,1.78,0,0,0-3.21-.1c-2.25-.77-2.7-4-2.7-4H10v0H9.7s-0.44,3.21-2.7,4a1.78,1.78,0,0,0-3.21.1,2.1,2.1,0,0,0-.54-0.07A2.13,2.13,0,0,0,1.61,19,1.5,1.5,0,0,1,0,17.74V17.4Z"/>
    </clipPath>
    <clipPath id="clip-path-3" transform="translate(5 5.02)">
      <rect class="cls-1" y="1" width="20" height="18"/>
    </clipPath>
    <clipPath id="clip-path-5" transform="translate(5 5.02)">
      <rect class="cls-1" width="20" height="19"/>
    </clipPath>
    <clipPath id="clip-path-7" transform="translate(5 5.02)">
      <path class="cls-2" d="M78.13,6a3.83,3.83,0,1,1,3.82,3.82A3.86,3.86,0,0,1,78.13,6ZM76,6A6,6,0,0,0,88,6,6,6,0,1,0,76,6Zm-7,5.5a0.33,0.33,0,0,0,.32.32h1.55a0.33,0.33,0,0,0,.32-0.32V2.17H73.7A0.32,0.32,0,0,0,74,1.85V0.48A0.32,0.32,0,0,0,73.7.17H66.42a0.32,0.32,0,0,0-.32.32V1.85a0.32,0.32,0,0,0,.32.32H69v9.35Zm-13.8,0a0.32,0.32,0,0,0,.32.32h6.78a0.32,0.32,0,0,0,.32-0.32V10.15a0.32,0.32,0,0,0-.32-0.32H57.34V6.92h4.12a0.32,0.32,0,0,0,.32-0.32V5.22a0.33,0.33,0,0,0-.32-0.32H57.34V2.17h4.93a0.32,0.32,0,0,0,.32-0.32V0.48A0.32,0.32,0,0,0,62.27.17H55.49a0.32,0.32,0,0,0-.32.32v11Zm-10.65-6V2.17h2.72a1.66,1.66,0,0,1,1.65,1.62,1.7,1.7,0,0,1-1.65,1.7H44.52Zm-2.18,6a0.32,0.32,0,0,0,.32.32h1.53a0.33,0.33,0,0,0,.32-0.32V7.27h1.85l2.22,4.42a0.28,0.28,0,0,0,.27.15h1.75a0.32,0.32,0,0,0,.28-0.48L48.59,7.12a3.68,3.68,0,0,0,2.47-3.37A3.61,3.61,0,0,0,47.42.17H42.65a0.32,0.32,0,0,0-.32.32v11ZM31.88,7.85l1.63-3.67h0l1.67,3.67H31.88Zm-3.57,4h1.45a0.5,0.5,0,0,0,.48-0.33l0.82-1.8h5l0.82,1.8a0.48,0.48,0,0,0,.48.33H38.8a0.29,0.29,0,0,0,.28-0.43L34,0.18A0.28,0.28,0,0,0,33.67,0H33.5a0.3,0.3,0,0,0-.28.18L28,11.4A0.29,0.29,0,0,0,28.32,11.83Z"/>
    </clipPath>
    <clipPath id="clip-path-8" transform="translate(5 5.02)">
      <rect class="cls-1" x="28" width="60" height="12"/>
    </clipPath>
    <clipPath id="clip-path-9" transform="translate(5 5.02)">
      <rect class="cls-1" x="28" y="-0.02" width="60" height="12.05"/>
    </clipPath>
    <clipPath id="clip-path-10" transform="translate(5 5.02)">
      <rect class="cls-1" x="27" width="61" height="12"/>
    </clipPath>
    <clipPath id="clip-path-13" transform="translate(5 5.02)">
      <path class="cls-2" d="M86.77,19.76a0,0,0,0,0,0,0h0a0,0,0,0,0,0,0V16.1H88a0,0,0,0,0,0,0v0a0,0,0,0,0,0,0H85.64a0,0,0,0,0,0,0v0a0,0,0,0,0,0,0h1.13v3.66Zm-7,.09a0,0,0,0,0,0,0h0a0,0,0,0,0,0,0V16.22L82.7,20a0,0,0,0,0,.07,0v-3.8a0,0,0,0,0,0,0h0a0,0,0,0,0,0,0v3.62L79.87,16a0,0,0,0,0-.07,0v3.81Zm-5.24,0a0,0,0,0,0,0,0h2.21a0,0,0,0,0,0,0v0a0,0,0,0,0,0,0H74.66V18h1.89a0,0,0,0,0,0,0v0a0,0,0,0,0,0,0H74.66V16.19h2.15a0,0,0,0,0,0,0v0a0,0,0,0,0,0,0H74.6a0,0,0,0,0,0,0v3.72Zm-7.32,0s0,0,0,0h0s0,0,0,0l0.75-3.59,1.17,3.65a0,0,0,0,0,.08,0l1.14-3.65,0.78,3.59s0,0,0,0h0s0,0,0,0L70.53,16a0,0,0,0,0-.08,0l-1.16,3.67L68.12,16A0,0,0,0,0,68,16Zm-5.13-1.38V16.19h1.07a1.14,1.14,0,1,1,0,2.27H62.12ZM62,19.85a0,0,0,0,0,0,0h0a0,0,0,0,0,0,0V18.56h1.07a1.23,1.23,0,1,0,0-2.47H62.06a0,0,0,0,0,0,0v3.72ZM54.93,18a1.86,1.86,0,1,1,1.86,1.85A1.85,1.85,0,0,1,54.93,18Zm-0.1,0a2,2,0,1,0,2-2A1.94,1.94,0,0,0,54.83,18Zm-4.64,1.85a0,0,0,0,0,0,0h1.95a0,0,0,0,0,0,0v0a0,0,0,0,0,0,0H50.28V16.13a0,0,0,0,0,0,0h0a0,0,0,0,0,0,0v3.72Zm-5.24,0a0,0,0,0,0,0,0h2.21a0,0,0,0,0,0,0v0a0,0,0,0,0,0,0H45V18h1.89a0,0,0,0,0,0,0v0a0,0,0,0,0,0,0H45V16.19h2.15a0,0,0,0,0,0,0v0a0,0,0,0,0,0,0H45a0,0,0,0,0,0,0v3.72ZM40.22,20a0,0,0,0,0,.06,0L42,16.13a0,0,0,0,0,0,0l0,0a0,0,0,0,0,0,0l-1.61,3.7-1.57-3.7a0,0,0,0,0,0,0l0,0a0,0,0,0,0,0,0Zm-6.32-.12a0,0,0,0,0,0,0h2.21a0,0,0,0,0,0,0v0a0,0,0,0,0,0,0H34V18h1.89a0,0,0,0,0,0,0v0a0,0,0,0,0,0,0H34V16.19h2.15a0,0,0,0,0,0,0v0a0,0,0,0,0,0,0H33.95a0,0,0,0,0,0,0v3.72Zm-5.82-.06v-3.6h1a1.8,1.8,0,1,1,0,3.6h-1ZM28,19.85a0,0,0,0,0,0,0h1.08a1.9,1.9,0,1,0,0-3.8H28a0,0,0,0,0,0,0v3.72Z"/>
    </clipPath>
    <clipPath id="clip-path-14" transform="translate(5 5.02)">
      <rect class="cls-1" x="28" y="15" width="61" height="5"/>
    </clipPath>
    <clipPath id="clip-path-16" transform="translate(5 5.02)">
      <rect class="cls-1" x="28" y="15.97" width="60.05" height="4.03"/>
    </clipPath>
  </defs>
  <title>areto</title>
  <g class="cls-3">
    <g class="cls-4">
      <g class="cls-5">
        <g class="cls-6">
          <g class="cls-6">
            <g class="cls-7">
              <rect class="cls-8" y="1.02" width="30" height="28"/>
            </g>
          </g>
        </g>
      </g>
    </g>
  </g>
  <g class="cls-3">
    <g class="cls-9">
      <g class="cls-5">
        <g class="cls-10">
          <g class="cls-11">
            <g class="cls-12">
              <rect class="cls-8" x="28" width="70" height="22.05"/>
            </g>
          </g>
        </g>
      </g>
    </g>
  </g>
  <g class="cls-3">
    <path class="cls-13" d="M86.77,19.76a0,0,0,0,0,0,0h0a0,0,0,0,0,0,0V16.1H88a0,0,0,0,0,0,0v0a0,0,0,0,0,0,0H85.64a0,0,0,0,0,0,0v0a0,0,0,0,0,0,0h1.13v3.66Zm-7,.09a0,0,0,0,0,0,0h0a0,0,0,0,0,0,0V16.22L82.7,20a0,0,0,0,0,.07,0v-3.8a0,0,0,0,0,0,0h0a0,0,0,0,0,0,0v3.62L79.87,16a0,0,0,0,0-.07,0v3.81Zm-5.24,0a0,0,0,0,0,0,0h2.21a0,0,0,0,0,0,0v0a0,0,0,0,0,0,0H74.66V18h1.89a0,0,0,0,0,0,0v0a0,0,0,0,0,0,0H74.66V16.19h2.15a0,0,0,0,0,0,0v0a0,0,0,0,0,0,0H74.6a0,0,0,0,0,0,0v3.72Zm-7.32,0s0,0,0,0h0s0,0,0,0l0.75-3.59,1.17,3.65a0,0,0,0,0,.08,0l1.14-3.65,0.78,3.59s0,0,0,0h0s0,0,0,0L70.53,16a0,0,0,0,0-.08,0l-1.16,3.67L68.12,16A0,0,0,0,0,68,16Zm-5.13-1.38V16.19h1.07a1.14,1.14,0,1,1,0,2.27H62.12ZM62,19.85a0,0,0,0,0,0,0h0a0,0,0,0,0,0,0V18.56h1.07a1.23,1.23,0,1,0,0-2.47H62.06a0,0,0,0,0,0,0v3.72ZM54.93,18a1.86,1.86,0,1,1,1.86,1.85A1.85,1.85,0,0,1,54.93,18Zm-0.1,0a2,2,0,1,0,2-2A1.94,1.94,0,0,0,54.83,18Zm-4.64,1.85a0,0,0,0,0,0,0h1.95a0,0,0,0,0,0,0v0a0,0,0,0,0,0,0H50.28V16.13a0,0,0,0,0,0,0h0a0,0,0,0,0,0,0v3.72Zm-5.24,0a0,0,0,0,0,0,0h2.21a0,0,0,0,0,0,0v0a0,0,0,0,0,0,0H45V18h1.89a0,0,0,0,0,0,0v0a0,0,0,0,0,0,0H45V16.19h2.15a0,0,0,0,0,0,0v0a0,0,0,0,0,0,0H45a0,0,0,0,0,0,0v3.72ZM40.22,20a0,0,0,0,0,.06,0L42,16.13a0,0,0,0,0,0,0l0,0a0,0,0,0,0,0,0l-1.61,3.7-1.57-3.7a0,0,0,0,0,0,0l0,0a0,0,0,0,0,0,0Zm-6.32-.12a0,0,0,0,0,0,0h2.21a0,0,0,0,0,0,0v0a0,0,0,0,0,0,0H34V18h1.89a0,0,0,0,0,0,0v0a0,0,0,0,0,0,0H34V16.19h2.15a0,0,0,0,0,0,0v0a0,0,0,0,0,0,0H33.95a0,0,0,0,0,0,0v3.72Zm-5.82-.06v-3.6h1a1.8,1.8,0,1,1,0,3.6h-1ZM28,19.85a0,0,0,0,0,0,0h1.08a1.9,1.9,0,1,0,0-3.8H28a0,0,0,0,0,0,0v3.72Z" transform="translate(5 5.02)"/>
  </g>
  <g class="cls-3">
    <g class="cls-14">
      <g class="cls-5">
        <g class="cls-15">
          <g class="cls-15">
            <path class="cls-13" d="M86.77,19.76a0,0,0,0,0,0,0h0a0,0,0,0,0,0,0V16.1H88a0,0,0,0,0,0,0v0a0,0,0,0,0,0,0H85.64a0,0,0,0,0,0,0v0a0,0,0,0,0,0,0h1.13v3.66Zm-7,.09a0,0,0,0,0,0,0h0a0,0,0,0,0,0,0V16.22L82.7,20a0,0,0,0,0,.07,0v-3.8a0,0,0,0,0,0,0h0a0,0,0,0,0,0,0v3.62L79.87,16a0,0,0,0,0-.07,0v3.81Zm-5.24,0a0,0,0,0,0,0,0h2.21a0,0,0,0,0,0,0v0a0,0,0,0,0,0,0H74.66V18h1.89a0,0,0,0,0,0,0v0a0,0,0,0,0,0,0H74.66V16.19h2.15a0,0,0,0,0,0,0v0a0,0,0,0,0,0,0H74.6a0,0,0,0,0,0,0v3.72Zm-7.32,0s0,0,0,0h0s0,0,0,0l0.75-3.59,1.17,3.65a0,0,0,0,0,.08,0l1.14-3.65,0.78,3.59s0,0,0,0h0s0,0,0,0L70.53,16a0,0,0,0,0-.08,0l-1.16,3.67L68.12,16A0,0,0,0,0,68,16Zm-5.13-1.38V16.19h1.07a1.14,1.14,0,1,1,0,2.27H62.12ZM62,19.85a0,0,0,0,0,0,0h0a0,0,0,0,0,0,0V18.56h1.07a1.23,1.23,0,1,0,0-2.47H62.06a0,0,0,0,0,0,0v3.72ZM54.93,18a1.86,1.86,0,1,1,1.86,1.85A1.85,1.85,0,0,1,54.93,18Zm-0.1,0a2,2,0,1,0,2-2A1.94,1.94,0,0,0,54.83,18Zm-4.64,1.85a0,0,0,0,0,0,0h1.95a0,0,0,0,0,0,0v0a0,0,0,0,0,0,0H50.28V16.13a0,0,0,0,0,0,0h0a0,0,0,0,0,0,0v3.72Zm-5.24,0a0,0,0,0,0,0,0h2.21a0,0,0,0,0,0,0v0a0,0,0,0,0,0,0H45V18h1.89a0,0,0,0,0,0,0v0a0,0,0,0,0,0,0H45V16.19h2.15a0,0,0,0,0,0,0v0a0,0,0,0,0,0,0H45a0,0,0,0,0,0,0v3.72ZM40.22,20a0,0,0,0,0,.06,0L42,16.13a0,0,0,0,0,0,0l0,0a0,0,0,0,0,0,0l-1.61,3.7-1.57-3.7a0,0,0,0,0,0,0l0,0a0,0,0,0,0,0,0Zm-6.32-.12a0,0,0,0,0,0,0h2.21a0,0,0,0,0,0,0v0a0,0,0,0,0,0,0H34V18h1.89a0,0,0,0,0,0,0v0a0,0,0,0,0,0,0H34V16.19h2.15a0,0,0,0,0,0,0v0a0,0,0,0,0,0,0H33.95a0,0,0,0,0,0,0v3.72Zm-5.82-.06v-3.6h1a1.8,1.8,0,1,1,0,3.6h-1ZM28,19.85a0,0,0,0,0,0,0h1.08a1.9,1.9,0,1,0,0-3.8H28a0,0,0,0,0,0,0v3.72Z" transform="translate(5 5.02)"/>
          </g>
          <g class="cls-16">
            <g class="cls-15">
              <rect class="cls-8" x="28" y="15.98" width="70.05" height="14.03"/>
            </g>
          </g>
        </g>
      </g>
    </g>
  </g>
</svg>
