<svg id="ico-tv" xmlns="http://www.w3.org/2000/svg" viewBox="0 0 16.01 15.97">
  <defs>
    <style>
      .ico-tv__path {
        fill: #fff;
      }
    </style>
  </defs>
  <path class="ico-tv__path" d="M14.68,4H9l2.24-2.68,0.1,0A0.67,0.67,0,1,0,10.67.67a0.66,0.66,0,0,0,0,.23L8.13,4H7.88L5.29,0.89a0.67,0.67,0,0,0,0-.23,0.67,0.67,0,1,0-.67.67l0.1,0L7,4H1.33A1.33,1.33,0,0,0,0,5.32v9.32A1.33,1.33,0,0,0,1.33,16H14.68A1.33,1.33,0,0,0,16,14.64V5.32A1.33,1.33,0,0,0,14.68,4ZM12,13.31a1.33,1.33,0,0,1-1.33,1.33h-8a1.33,1.33,0,0,1-1.33-1.33V6.66A1.33,1.33,0,0,1,2.67,5.32h8A1.33,1.33,0,0,1,12,6.66v6.66Zm2-5.95a1,1,0,1,1,1-1A1,1,0,0,1,14,7.36Z"/>
</svg>
