<svg id="ico-coffe" xmlns="http://www.w3.org/2000/svg" viewBox="0 0 16.01 15.63">
  <defs>
    <style>
      .ico-coffe__path {
        fill: #fff;
      }
    </style>
  </defs>
  <path class="ico-coffe__path" d="M13.31,13.61c-0.6,0-1.29-.08-2-0.1a6.84,6.84,0,0,0,1.67-2.25,1.58,1.58,0,0,0,2,.24,1.61,1.61,0,0,0-1.22-2.95c0-.29,0-0.58,0-0.88a0.56,0.56,0,0,0-.56-0.56H2.83a0.56,0.56,0,0,0-.56.56,7.72,7.72,0,0,0,2.46,5.83c-0.74,0-1.43.06-2,.1C0.61,13.75,0,13.89,0,14.54s0.61,0.79,2.7.93c1.42,0.1,3.3.16,5.3,0.16s3.88-.06,5.3-0.16c2.09-.15,2.7-0.29,2.7-0.93S15.4,13.75,13.31,13.61Zm0.27-4.29h0a0.93,0.93,0,0,1,1.29.32,0.94,0.94,0,0,1,.11.71,0.93,0.93,0,0,1-.42.58,0.93,0.93,0,0,1-1.29-.31l0,0A8.35,8.35,0,0,0,13.58,9.31ZM3.41,8.24H12.6c-0.22,3-2.2,5.42-4.59,5.42S3.63,11.27,3.41,8.24Z"/>
  <path class="ico-coffe__path" d="M7,6H7a0.45,0.45,0,0,0,.42-0.61,3.19,3.19,0,0,1,.12-2.3A2.93,2.93,0,0,0,8.12.69,1.07,1.07,0,0,0,7.46,0a0.45,0.45,0,0,0-.56.3,0.45,0.45,0,0,0,.28.56,0.22,0.22,0,0,1,.1.13A2.06,2.06,0,0,1,6.8,2.57l0,0-0.15.23C5.95,3.89,5.74,4.72,6,5.3A1.21,1.21,0,0,0,7,6Z"/>
  <path class="ico-coffe__path" d="M9.35,6h0a0.42,0.42,0,0,0,.4-0.57,1.81,1.81,0,0,1,.06-1.28,1.9,1.9,0,0,0,.36-1.58,0.81,0.81,0,0,0-.5-0.5,0.43,0.43,0,0,0-.52.29,0.42,0.42,0,0,0,0,.32,0.42,0.42,0,0,0,.25.2l0,0a1.16,1.16,0,0,1-.28.83l0,0L9,3.9a1.74,1.74,0,0,0-.38,1.66A0.88,0.88,0,0,0,9.35,6Z"/>
</svg>
