<svg id="ico-plane" xmlns="http://www.w3.org/2000/svg" viewBox="0 0 16 15">
  <defs>
    <style>
      .ico-plane__path {
        fill: #fff;
      }
    </style>
  </defs>
  <path class="ico-plane__path" d="M15.94,0a0.16,0.16,0,0,0-.17,0L0.09,8A0.16,0.16,0,0,0,0,8.11a0.16,0.16,0,0,0,.11.14l5,1.56a0.16,0.16,0,0,0,.16,0l7.54-6.39L7,10.18a0.16,0.16,0,0,0,0,.15,0.16,0.16,0,0,0,.11.11l5.82,1.76h0l0.08,0a0.16,0.16,0,0,0,.08-0.1L16,0.2A0.16,0.16,0,0,0,15.94,0Z"/>
  <path class="ico-plane__path" d="M8.76,12.17l-1.61-.49a0.16,0.16,0,0,0-.21.15v3a0.16,0.16,0,0,0,.12.15h0a0.16,0.16,0,0,0,.14-0.07l1.61-2.52a0.16,0.16,0,0,0,0-.14A0.16,0.16,0,0,0,8.76,12.17Z"/>
</svg>
