<svg id="ico-chim" xmlns="http://www.w3.org/2000/svg" viewBox="0 0 11.68 15.95">
  <defs>
    <style>
      .ico-chim__path {
        fill: #fff;
      }
    </style>
  </defs>
  <path class="ico-chim__path" d="M11.58,13.95L8.51,5.68V3.25a1.47,1.47,0,0,0,1-1.39V1.47A1.47,1.47,0,0,0,8,0H3.65A1.47,1.47,0,0,0,2.17,1.47v0.4a1.47,1.47,0,0,0,1,1.38V5.68L0.11,13.93A1.45,1.45,0,0,0,.25,15.3,1.48,1.48,0,0,0,1.48,16H10.2a1.48,1.48,0,0,0,1.23-.65A1.44,1.44,0,0,0,11.58,13.95ZM3.47,12.07a0.5,0.5,0,1,1,.5.5A0.5,0.5,0,0,1,3.47,12.07Zm3.25,0.44a0.86,0.86,0,1,1-.87.86A0.87,0.87,0,0,1,6.72,12.51ZM6,10.62a0.63,0.63,0,1,1,.63.62A0.63,0.63,0,0,1,6,10.62ZM4.15,5.85V2.36H3.65a0.5,0.5,0,0,1-.5-0.5V1.47A0.5,0.5,0,0,1,3.65,1H8a0.5,0.5,0,0,1,.5.5v0.4a0.5,0.5,0,0,1-.51.5H7.53V5.85L8.39,8.17l0,0c-0.64.66-5.31,0.73-5.31,0.73H3Z"/>
  <path class="ico-chim__path" d="M5.5,7.72A0.68,0.68,0,1,0,4.82,7,0.68,0.68,0,0,0,5.5,7.72Z"/>
</svg>
